<svg width="26" height="34" viewBox="0 0 26 34" fill="none" xmlns="http://www.w3.org/2000/svg">
<path d="M13 0C11.6545 0 10.5625 1.1424 10.5625 2.55V3.73203C6.35892 4.86556 3.25 8.84816 3.25 13.6V23.8L0.755371 25.7656H0.752197C0.521614 25.9192 0.331797 26.1312 0.200315 26.3819C0.0688326 26.6327 -6.48474e-05 26.914 4.57988e-08 27.2C4.57988e-08 27.6509 0.171205 28.0833 0.475952 28.4021C0.780698 28.7209 1.19402 28.9 1.625 28.9H13H24.375C24.806 28.9 25.2193 28.7209 25.524 28.4021C25.8288 28.0833 26 27.6509 26 27.2C26.0001 26.914 25.9312 26.6327 25.7997 26.3819C25.6682 26.1312 25.4784 25.9192 25.2478 25.7656L22.75 23.8V13.6C22.75 8.84816 19.6411 4.86556 15.4375 3.73203V2.55C15.4375 1.1424 14.3455 0 13 0ZM9.75 30.6C9.75 32.47 11.2125 34 13 34C14.7875 34 16.25 32.47 16.25 30.6H9.75Z" fill="white"/>
</svg>
