<svg width="23" height="23" viewBox="0 0 23 23" fill="none" xmlns="http://www.w3.org/2000/svg">
<path d="M3.35425 1.91675C3.23158 1.91675 3.10938 1.96417 3.01546 2.05713C2.82859 2.244 2.82859 2.54783 3.01546 2.7347L4.88159 4.60083C3.06198 6.34417 1.91675 8.78657 1.91675 11.5001C1.91675 16.7818 6.21839 21.0834 11.5001 21.0834C16.7818 21.0834 21.0834 16.7818 21.0834 11.5001C21.0834 6.57819 17.3521 2.5086 12.5632 1.97852C12.5315 1.97506 12.4997 1.97318 12.4678 1.9729C12.2219 1.97053 11.9845 2.06276 11.8047 2.2305C11.6249 2.39824 11.5165 2.62867 11.5018 2.87413C11.4871 3.11958 11.5674 3.36128 11.7259 3.54924C11.8845 3.7372 12.1092 3.85703 12.3536 3.88395C16.1878 4.30836 19.1667 7.54397 19.1667 11.5001C19.1667 15.7461 15.7461 19.1667 11.5001 19.1667C7.25403 19.1667 3.83341 15.7461 3.83341 11.5001C3.83341 9.30601 4.76061 7.34513 6.23299 5.95223L7.80713 7.52637C7.994 7.71324 8.29783 7.71324 8.4847 7.52637C8.57862 7.43341 8.62508 7.31025 8.62508 7.18758V2.87508C8.62508 2.62092 8.52411 2.37716 8.34439 2.19744C8.16467 2.01771 7.92091 1.91675 7.66675 1.91675H3.35425Z" fill="black"/>
</svg>
